<svg width="78" height="15" viewBox="0 0 78 15" fill="none" xmlns="http://www.w3.org/2000/svg">
<path d="M8.9 14.4059L3.18 7.04591L8.72 0.285914H12.6L6.36 7.62591V6.34591L12.8 14.4059H8.9ZM0.36 14.4059V0.285914H3.5V14.4059H0.36ZM16.51 8.58591V6.26591H19.49C20.1167 6.26591 20.5967 6.10591 20.93 5.78591C21.2767 5.46591 21.45 5.03258 21.45 4.48591C21.45 3.97925 21.2833 3.55925 20.95 3.22591C20.6167 2.89258 20.1367 2.72591 19.51 2.72591H16.51V0.285914H19.87C20.8033 0.285914 21.6233 0.465914 22.33 0.825914C23.0367 1.17258 23.59 1.65925 23.99 2.28591C24.39 2.91258 24.59 3.63258 24.59 4.44591C24.59 5.27258 24.39 5.99925 23.99 6.62591C23.59 7.23925 23.03 7.71925 22.31 8.06591C21.59 8.41258 20.7433 8.58591 19.77 8.58591H16.51ZM14.11 14.4059V0.285914H17.25V14.4059H14.11ZM21.79 14.4059L17.39 8.32591L20.27 7.54591L25.51 14.4059H21.79ZM30.5398 9.14591L25.0998 0.285914H28.7398L32.9198 7.44591H30.5798L34.7598 0.285914H38.3198L32.8398 9.14591H30.5398ZM30.1598 14.4059V7.70591H33.2998V14.4059H30.1598ZM41.842 9.26591V6.82591H44.882C45.2687 6.82591 45.622 6.74591 45.942 6.58591C46.262 6.42591 46.5154 6.19258 46.702 5.88591C46.8887 5.57925 46.982 5.20591 46.982 4.76591C46.982 4.33925 46.8887 3.97258 46.702 3.66591C46.5154 3.35925 46.262 3.12591 45.942 2.96591C45.622 2.80591 45.2687 2.72591 44.882 2.72591H41.842V0.285914H45.342C46.2354 0.285914 47.042 0.465914 47.762 0.825914C48.482 1.18591 49.0487 1.70591 49.462 2.38591C49.8887 3.05258 50.102 3.84591 50.102 4.76591C50.102 5.68591 49.8887 6.48591 49.462 7.16591C49.0487 7.83258 48.482 8.35258 47.762 8.72591C47.042 9.08591 46.2354 9.26591 45.342 9.26591H41.842ZM39.442 14.4059V0.285914H42.582V14.4059H39.442ZM55.2067 14.4059V0.485914H58.3467V14.4059H55.2067ZM50.7867 3.02591V0.285914H62.7667V3.02591H50.7867ZM70.518 14.6459C69.4513 14.6459 68.4646 14.4592 67.558 14.0859C66.6646 13.7126 65.878 13.1926 65.198 12.5259C64.518 11.8592 63.9913 11.0859 63.618 10.2059C63.2446 9.31258 63.058 8.35258 63.058 7.32591C63.058 6.28591 63.2446 5.32591 63.618 4.44591C63.9913 3.56591 64.5113 2.79925 65.178 2.14591C65.8446 1.47925 66.6246 0.965913 67.518 0.605913C68.4246 0.23258 69.4113 0.0459132 70.478 0.0459132C71.5313 0.0459132 72.5046 0.23258 73.398 0.605913C74.3046 0.965913 75.0913 1.47925 75.758 2.14591C76.438 2.79925 76.9646 3.57258 77.338 4.46591C77.7113 5.34591 77.898 6.30591 77.898 7.34591C77.898 8.37258 77.7113 9.33258 77.338 10.2259C76.9646 11.1059 76.4446 11.8792 75.778 12.5459C75.1113 13.1992 74.3246 13.7126 73.418 14.0859C72.5246 14.4592 71.558 14.6459 70.518 14.6459ZM70.478 11.7859C71.318 11.7859 72.0513 11.5992 72.678 11.2259C73.318 10.8526 73.8113 10.3326 74.158 9.66591C74.5046 8.98591 74.678 8.20591 74.678 7.32591C74.678 6.65925 74.578 6.05925 74.378 5.52591C74.178 4.97925 73.8913 4.51258 73.518 4.12591C73.1446 3.72591 72.698 3.42591 72.178 3.22591C71.6713 3.01258 71.1046 2.90591 70.478 2.90591C69.638 2.90591 68.898 3.09258 68.258 3.46591C67.6313 3.82591 67.1446 4.33925 66.798 5.00591C66.4513 5.65925 66.278 6.43258 66.278 7.32591C66.278 7.99258 66.378 8.59925 66.578 9.14591C66.778 9.69258 67.058 10.1659 67.418 10.5659C67.7913 10.9526 68.238 11.2526 68.758 11.4659C69.278 11.6792 69.8513 11.7859 70.478 11.7859Z" fill="#FFFFFF"/>
</svg>
